<?xml version="1.0" encoding="utf-8"?>
<!-- Generator: Adobe Illustrator 22.1.0, SVG Export Plug-In . SVG Version: 6.00 Build 0)  -->
<svg version="1.1" id="Layer_1" xmlns="http://www.w3.org/2000/svg" xmlns:xlink="http://www.w3.org/1999/xlink" x="0px" y="0px"
	 viewBox="0 0 128 96" style="enable-background:new 0 0 128 96;" xml:space="preserve">
<style type="text/css">
	.st0{fill-rule:evenodd;clip-rule:evenodd;fill:#FF0000;stroke:#CCCCCC;stroke-miterlimit:10;}
	.st1{fill:none;stroke:#29ABE2;stroke-width:2;stroke-linecap:round;stroke-miterlimit:10;}
	.st2{fill:#FCEE21;}
	.st3{fill:none;stroke:#FCEE21;stroke-width:2;stroke-linecap:round;stroke-miterlimit:10;}
	.st4{fill:none;stroke:#FCEE21;stroke-width:4;stroke-linecap:round;stroke-miterlimit:10;}
	.st5{fill-rule:evenodd;clip-rule:evenodd;fill:#E6E6E6;stroke:#CCCCCC;stroke-miterlimit:10;}
	.st6{fill-rule:evenodd;clip-rule:evenodd;fill:#B3B3B3;stroke:#999999;stroke-miterlimit:10;}
	.st7{fill-rule:evenodd;clip-rule:evenodd;fill:#F2F2F2;stroke:#F2F2F2;stroke-miterlimit:10;}
	.st8{fill-rule:evenodd;clip-rule:evenodd;fill:#FCEE21;stroke:#FBB03B;stroke-miterlimit:10;}
	.st9{fill:none;stroke:#CCCCCC;stroke-miterlimit:10;}
	.st10{fill:none;stroke:#CCCCCC;stroke-width:4;stroke-miterlimit:10;}
	.st11{fill:#FFFFFF;stroke:#CCCCCC;stroke-miterlimit:10;}
</style>
<g>
	<g>
		<circle class="st2" cx="66" cy="48" r="27.5"/>
		<path class="st2" d="M66,21c14.9,0,27,12.1,27,27S80.9,75,66,75S39,62.9,39,48S51.1,21,66,21 M66,20c-15.5,0-28,12.5-28,28
			s12.5,28,28,28s28-12.5,28-28S81.5,20,66,20L66,20z"/>
	</g>
	<g>
		<line class="st4" x1="66.5" y1="15.5" x2="66.5" y2="6.5"/>
	</g>
	<g>
		<line class="st4" x1="75.4" y1="16.9" x2="77.9" y2="8.2"/>
	</g>
	<g>
		<line class="st4" x1="84.3" y1="21.1" x2="89.2" y2="13.6"/>
	</g>
	<g>
		<line class="st4" x1="91" y1="27.2" x2="97.8" y2="21.3"/>
	</g>
	<g>
		<line class="st4" x1="96.1" y1="35.6" x2="104.4" y2="32"/>
	</g>
	<g>
		<line class="st4" x1="98.4" y1="44.3" x2="107.3" y2="43.1"/>
	</g>
	<g>
		<line class="st4" x1="98.1" y1="53.7" x2="107" y2="55.2"/>
	</g>
	<g>
		<line class="st4" x1="95.3" y1="62.3" x2="103.4" y2="66.2"/>
	</g>
	<g>
		<line class="st4" x1="89.9" y1="70.2" x2="96.6" y2="76.2"/>
	</g>
	<g>
		<line class="st4" x1="82.9" y1="75.9" x2="87.7" y2="83.5"/>
	</g>
	<g>
		<line class="st4" x1="74.2" y1="79.8" x2="76.6" y2="88.4"/>
	</g>
	<g>
		<line class="st4" x1="65.2" y1="80.8" x2="65.1" y2="89.8"/>
	</g>
	<g>
		<line class="st4" x1="55.6" y1="79" x2="52.9" y2="87.6"/>
	</g>
	<g>
		<line class="st4" x1="40.9" y1="68.8" x2="34" y2="74.6"/>
	</g>
	<g>
		<line class="st4" x1="47.6" y1="75" x2="42.5" y2="82.4"/>
	</g>
	<g>
		<line class="st4" x1="36.2" y1="61.1" x2="28" y2="64.8"/>
	</g>
	<g>
		<line class="st4" x1="33.9" y1="52.4" x2="25" y2="53.6"/>
	</g>
	<g>
		<line class="st4" x1="34" y1="43.3" x2="25.1" y2="42.1"/>
	</g>
	<g>
		<line class="st4" x1="36.6" y1="34.7" x2="28.4" y2="31"/>
	</g>
	<g>
		<line class="st4" x1="41.5" y1="27.1" x2="34.6" y2="21.3"/>
	</g>
	<g>
		<line class="st4" x1="48.3" y1="21.1" x2="43.2" y2="13.7"/>
	</g>
	<g>
		<line class="st4" x1="56.4" y1="17.2" x2="53.6" y2="8.7"/>
	</g>
</g>
</svg>
