<?xml version="1.0" encoding="utf-8"?>
<!-- Generator: Adobe Illustrator 22.1.0, SVG Export Plug-In . SVG Version: 6.00 Build 0)  -->
<svg version="1.1" id="Layer_1" xmlns="http://www.w3.org/2000/svg" xmlns:xlink="http://www.w3.org/1999/xlink" x="0px" y="0px"
	 viewBox="0 0 128 96" style="enable-background:new 0 0 128 96;" xml:space="preserve">
<style type="text/css">
	.st0{fill-rule:evenodd;clip-rule:evenodd;fill:#FF0000;stroke:#CCCCCC;stroke-miterlimit:10;}
	.st1{fill:none;stroke:#29ABE2;stroke-width:2;stroke-linecap:round;stroke-miterlimit:10;}
	.st2{fill:#FCEE21;}
	.st3{fill:none;stroke:#FCEE21;stroke-width:2;stroke-linecap:round;stroke-miterlimit:10;}
	.st4{fill:none;stroke:#FCEE21;stroke-width:4;stroke-linecap:round;stroke-miterlimit:10;}
	.st5{fill-rule:evenodd;clip-rule:evenodd;fill:#E6E6E6;stroke:#CCCCCC;stroke-miterlimit:10;}
	.st6{fill-rule:evenodd;clip-rule:evenodd;fill:#B3B3B3;stroke:#999999;stroke-miterlimit:10;}
	.st7{fill-rule:evenodd;clip-rule:evenodd;fill:#F2F2F2;stroke:#F2F2F2;stroke-miterlimit:10;}
	.st8{fill-rule:evenodd;clip-rule:evenodd;fill:#FCEE21;stroke:#FBB03B;stroke-miterlimit:10;}
	.st9{fill:none;stroke:#CCCCCC;stroke-miterlimit:10;}
	.st10{fill:none;stroke:#CCCCCC;stroke-width:4;stroke-miterlimit:10;}
	.st11{fill:#FFFFFF;stroke:#CCCCCC;stroke-miterlimit:10;}
</style>
<path class="st0" d="M70.5,8.5h-6c-1.7,0-3,1.3-3,3v64c0,1.7,1.3,3,3,3h6c1.7,0,3-1.3,3-3v-64C73.5,9.8,72.2,8.5,70.5,8.5z"/>
<circle class="st0" cx="67.5" cy="79.5" r="11"/>
<line class="st9" x1="73.5" y1="16.5" x2="69.5" y2="16.5"/>
<line class="st9" x1="73.5" y1="21.5" x2="69.5" y2="21.5"/>
<line class="st9" x1="73.5" y1="26.5" x2="69.5" y2="26.5"/>
<line class="st9" x1="73.5" y1="31.5" x2="69.5" y2="31.5"/>
<line class="st9" x1="73.5" y1="36.5" x2="69.5" y2="36.5"/>
<line class="st9" x1="73.5" y1="41.5" x2="69.5" y2="41.5"/>
<line class="st9" x1="73.5" y1="46.5" x2="69.5" y2="46.5"/>
<line class="st9" x1="73.5" y1="51.5" x2="69.5" y2="51.5"/>
<line class="st9" x1="73.5" y1="56.5" x2="69.5" y2="56.5"/>
</svg>
