<?xml version="1.0" encoding="utf-8"?>
<!-- Generator: Adobe Illustrator 22.1.0, SVG Export Plug-In . SVG Version: 6.00 Build 0)  -->
<svg version="1.1" id="Layer_1" xmlns="http://www.w3.org/2000/svg" xmlns:xlink="http://www.w3.org/1999/xlink" x="0px" y="0px"
	 viewBox="0 0 128 96" style="enable-background:new 0 0 128 96;" xml:space="preserve">
<style type="text/css">
	.st0{fill-rule:evenodd;clip-rule:evenodd;fill:#FF0000;stroke:#CCCCCC;stroke-miterlimit:10;}
	.st1{fill:none;stroke:#29ABE2;stroke-width:2;stroke-linecap:round;stroke-miterlimit:10;}
	.st2{fill:#FCEE21;}
	.st3{fill:none;stroke:#FCEE21;stroke-width:2;stroke-linecap:round;stroke-miterlimit:10;}
	.st4{fill:none;stroke:#FCEE21;stroke-width:4;stroke-linecap:round;stroke-miterlimit:10;}
	.st5{fill-rule:evenodd;clip-rule:evenodd;fill:#E6E6E6;stroke:#CCCCCC;stroke-miterlimit:10;}
	.st6{fill-rule:evenodd;clip-rule:evenodd;fill:#B3B3B3;stroke:#999999;stroke-miterlimit:10;}
	.st7{fill-rule:evenodd;clip-rule:evenodd;fill:#F2F2F2;stroke:#F2F2F2;stroke-miterlimit:10;}
	.st8{fill-rule:evenodd;clip-rule:evenodd;fill:#FCEE21;stroke:#FBB03B;stroke-miterlimit:10;}
	.st9{fill:none;stroke:#CCCCCC;stroke-miterlimit:10;}
	.st10{fill:none;stroke:#CCCCCC;stroke-width:4;stroke-miterlimit:10;}
	.st11{fill:#FFFFFF;stroke:#CCCCCC;stroke-miterlimit:10;}
</style>
<g>
	<g>
		<path class="st2" d="M47.1,55.4c-7.8,0-14.1-6.3-14.1-14.1s6.3-14.1,14.1-14.1s14.1,6.3,14.1,14.1S54.8,55.4,47.1,55.4z"/>
		<path class="st2" d="M47.1,28.2c7.2,0,13.1,5.9,13.1,13.1s-5.9,13.1-13.1,13.1S34,48.5,34,41.3S39.9,28.2,47.1,28.2 M47.1,26.2
			C38.8,26.2,32,33,32,41.3c0,8.3,6.7,15.1,15.1,15.1s15.1-6.7,15.1-15.1C62.1,33,55.4,26.2,47.1,26.2L47.1,26.2z"/>
	</g>
	<g>
		<line class="st3" x1="47.3" y1="23.8" x2="47.3" y2="19"/>
	</g>
	<g>
		<line class="st3" x1="52.2" y1="24.6" x2="53.5" y2="19.9"/>
	</g>
	<g>
		<line class="st3" x1="56.9" y1="26.8" x2="59.6" y2="22.8"/>
	</g>
	<g>
		<line class="st3" x1="60.5" y1="30.1" x2="64.2" y2="26.9"/>
	</g>
	<g>
		<line class="st3" x1="63.3" y1="34.6" x2="67.7" y2="32.7"/>
	</g>
	<g>
		<line class="st3" x1="64.5" y1="39.3" x2="69.3" y2="38.7"/>
	</g>
	<g>
		<line class="st3" x1="64.3" y1="44.4" x2="69.1" y2="45.2"/>
	</g>
	<g>
		<line class="st3" x1="62.8" y1="49" x2="67.2" y2="51.1"/>
	</g>
	<g>
		<line class="st3" x1="60" y1="53.2" x2="63.5" y2="56.5"/>
	</g>
	<g>
		<line class="st3" x1="56.2" y1="56.3" x2="58.7" y2="60.4"/>
	</g>
	<g>
		<line class="st3" x1="51.5" y1="58.4" x2="52.8" y2="63"/>
	</g>
	<g>
		<line class="st3" x1="46.7" y1="58.9" x2="46.6" y2="63.8"/>
	</g>
	<g>
		<line class="st3" x1="41.5" y1="58" x2="40" y2="62.6"/>
	</g>
	<g>
		<line class="st3" x1="33.6" y1="52.5" x2="29.9" y2="55.6"/>
	</g>
	<g>
		<line class="st3" x1="37.2" y1="55.8" x2="34.5" y2="59.8"/>
	</g>
	<g>
		<line class="st3" x1="31.1" y1="48.3" x2="26.7" y2="50.3"/>
	</g>
	<g>
		<line class="st3" x1="29.8" y1="43.7" x2="25" y2="44.3"/>
	</g>
	<g>
		<line class="st3" x1="29.9" y1="38.8" x2="25.1" y2="38.1"/>
	</g>
	<g>
		<line class="st3" x1="31.3" y1="34.1" x2="26.8" y2="32.2"/>
	</g>
	<g>
		<line class="st3" x1="33.9" y1="30" x2="30.2" y2="26.9"/>
	</g>
	<g>
		<line class="st3" x1="37.5" y1="26.8" x2="34.8" y2="22.8"/>
	</g>
	<g>
		<line class="st3" x1="41.9" y1="24.8" x2="40.4" y2="20.2"/>
	</g>
</g>
<path class="st5" d="M96.6,54.4c0.1-0.7,0.2-1.5,0.2-2.3c0-11.2-11.2-20.2-25-20.2c-13.5,0-24.4,8.6-25,19.3
	C37.1,52.9,30,59.5,30,67.4C30,76.6,39.8,84,51.8,84c7.1,0,13.5-2.6,17.5-6.7c3.9,1.9,8.7,3.1,14.1,3.1C95.8,80.4,106,74,106,66
	C106,61.2,102.3,57,96.6,54.4z"/>
</svg>
