<?xml version="1.0" encoding="utf-8"?>
<!-- Generator: Adobe Illustrator 22.1.0, SVG Export Plug-In . SVG Version: 6.00 Build 0)  -->
<svg version="1.1" id="Layer_1" xmlns="http://www.w3.org/2000/svg" xmlns:xlink="http://www.w3.org/1999/xlink" x="0px" y="0px"
	 viewBox="0 0 128 96" style="enable-background:new 0 0 128 96;" xml:space="preserve">
<style type="text/css">
	.st0{fill-rule:evenodd;clip-rule:evenodd;fill:#FF0000;stroke:#CCCCCC;stroke-miterlimit:10;}
	.st1{fill:none;stroke:#29ABE2;stroke-width:2;stroke-linecap:round;stroke-miterlimit:10;}
	.st2{fill:#FCEE21;}
	.st3{fill:none;stroke:#FCEE21;stroke-width:2;stroke-linecap:round;stroke-miterlimit:10;}
	.st4{fill:none;stroke:#FCEE21;stroke-width:4;stroke-linecap:round;stroke-miterlimit:10;}
	.st5{fill-rule:evenodd;clip-rule:evenodd;fill:#E6E6E6;stroke:#CCCCCC;stroke-miterlimit:10;}
	.st6{fill-rule:evenodd;clip-rule:evenodd;fill:#B3B3B3;stroke:#999999;stroke-miterlimit:10;}
	.st7{fill-rule:evenodd;clip-rule:evenodd;fill:#F2F2F2;stroke:#F2F2F2;stroke-miterlimit:10;}
	.st8{fill-rule:evenodd;clip-rule:evenodd;fill:#FCEE21;stroke:#FBB03B;stroke-miterlimit:10;}
	.st9{fill:none;stroke:#CCCCCC;stroke-miterlimit:10;}
	.st10{fill:none;stroke:#CCCCCC;stroke-width:4;stroke-miterlimit:10;}
	.st11{fill:#FFFFFF;stroke:#CCCCCC;stroke-miterlimit:10;}
</style>
<circle class="st7" cx="31.5" cy="69.5" r="2"/>
<circle class="st7" cx="31.5" cy="76.5" r="2"/>
<circle class="st7" cx="31.5" cy="83.5" r="2"/>
<circle class="st7" cx="31.5" cy="90.5" r="2"/>
<circle class="st7" cx="51.5" cy="69.5" r="2"/>
<circle class="st7" cx="51.5" cy="76.5" r="2"/>
<circle class="st7" cx="51.5" cy="83.5" r="2"/>
<circle class="st7" cx="51.5" cy="90.5" r="2"/>
<circle class="st7" cx="41.5" cy="65.5" r="2"/>
<circle class="st7" cx="41.5" cy="72.5" r="2"/>
<circle class="st7" cx="41.5" cy="79.5" r="2"/>
<circle class="st7" cx="41.5" cy="86.5" r="2"/>
<circle class="st7" cx="62.5" cy="63.5" r="2"/>
<circle class="st7" cx="62.5" cy="70.5" r="2"/>
<circle class="st7" cx="62.5" cy="77.5" r="2"/>
<circle class="st7" cx="62.5" cy="84.5" r="2"/>
<circle class="st7" cx="73.5" cy="65.5" r="2"/>
<circle class="st7" cx="73.5" cy="72.5" r="2"/>
<circle class="st7" cx="73.5" cy="79.5" r="2"/>
<circle class="st7" cx="73.5" cy="86.5" r="2"/>
<circle class="st7" cx="82.5" cy="64.5" r="2"/>
<circle class="st7" cx="82.5" cy="71.5" r="2"/>
<circle class="st7" cx="82.5" cy="78.5" r="2"/>
<circle class="st7" cx="82.5" cy="85.5" r="2"/>
<circle class="st7" cx="89.5" cy="72.5" r="2"/>
<circle class="st7" cx="89.5" cy="79.5" r="2"/>
<circle class="st7" cx="89.5" cy="86.5" r="2"/>
<circle class="st7" cx="89.5" cy="93.5" r="2"/>
<circle class="st7" cx="96.5" cy="62.5" r="2"/>
<circle class="st7" cx="96.5" cy="69.5" r="2"/>
<circle class="st7" cx="96.5" cy="76.5" r="2"/>
<circle class="st7" cx="96.5" cy="83.5" r="2"/>
<circle class="st7" cx="103.5" cy="69.5" r="2"/>
<circle class="st7" cx="103.5" cy="76.5" r="2"/>
<circle class="st7" cx="103.5" cy="83.5" r="2"/>
<circle class="st7" cx="103.5" cy="90.5" r="2"/>
<circle class="st7" cx="23.5" cy="62.5" r="2"/>
<circle class="st7" cx="23.5" cy="69.5" r="2"/>
<circle class="st7" cx="23.5" cy="76.5" r="2"/>
<circle class="st7" cx="23.5" cy="83.5" r="2"/>
<path class="st6" d="M99.7,33.3c0.1-0.9,0.2-1.9,0.2-2.9C99.9,16.4,85.8,5,68.4,5C51.5,5,37.7,15.8,37,29.3c-12,2.2-21,10.5-21,20.3
	c0,11.5,12.3,20.9,27.4,20.9c9,0,16.9-3.3,21.9-8.4c4.9,2.4,11,3.9,17.7,3.9c15.8,0,28.5-8.1,28.5-18.1
	C111.5,41.9,106.8,36.5,99.7,33.3z"/>
</svg>
