<?xml version="1.0" encoding="utf-8"?>
<!-- Generator: Adobe Illustrator 22.1.0, SVG Export Plug-In . SVG Version: 6.00 Build 0)  -->
<svg version="1.1" id="Layer_1" xmlns="http://www.w3.org/2000/svg" xmlns:xlink="http://www.w3.org/1999/xlink" x="0px" y="0px"
	 viewBox="0 0 128 96" style="enable-background:new 0 0 128 96;" xml:space="preserve">
<style type="text/css">
	.st0{fill-rule:evenodd;clip-rule:evenodd;fill:#FF0000;stroke:#CCCCCC;stroke-miterlimit:10;}
	.st1{fill:none;stroke:#29ABE2;stroke-width:2;stroke-linecap:round;stroke-miterlimit:10;}
	.st2{fill:#FCEE21;}
	.st3{fill:none;stroke:#FCEE21;stroke-width:2;stroke-linecap:round;stroke-miterlimit:10;}
	.st4{fill:none;stroke:#FCEE21;stroke-width:4;stroke-linecap:round;stroke-miterlimit:10;}
	.st5{fill-rule:evenodd;clip-rule:evenodd;fill:#E6E6E6;stroke:#CCCCCC;stroke-miterlimit:10;}
	.st6{fill-rule:evenodd;clip-rule:evenodd;fill:#B3B3B3;stroke:#999999;stroke-miterlimit:10;}
	.st7{fill-rule:evenodd;clip-rule:evenodd;fill:#F2F2F2;stroke:#F2F2F2;stroke-miterlimit:10;}
	.st8{fill-rule:evenodd;clip-rule:evenodd;fill:#FCEE21;stroke:#FBB03B;stroke-miterlimit:10;}
	.st9{fill:none;stroke:#CCCCCC;stroke-miterlimit:10;}
	.st10{fill:none;stroke:#CCCCCC;stroke-width:4;stroke-miterlimit:10;}
	.st11{fill:#FFFFFF;stroke:#CCCCCC;stroke-miterlimit:10;}
</style>
<g>
	<line class="st1" x1="24" y1="59" x2="24" y2="83"/>
	<line class="st1" x1="35" y1="58" x2="35" y2="83"/>
	<line class="st1" x1="46" y1="60" x2="46" y2="76"/>
	<line class="st1" x1="57" y1="57" x2="57" y2="77"/>
	<line class="st1" x1="64" y1="61" x2="64" y2="78"/>
	<line class="st1" x1="73" y1="69" x2="73" y2="82"/>
	<line class="st1" x1="84" y1="62" x2="84" y2="77"/>
	<line class="st1" x1="91" y1="55" x2="91" y2="74"/>
	<line class="st1" x1="104" y1="58" x2="104" y2="75"/>
	<line class="st1" x1="97" y1="77" x2="97" y2="84"/>
	<line class="st1" x1="86" y1="80" x2="86" y2="87"/>
	<line class="st1" x1="67" y1="80" x2="67" y2="91"/>
	<line class="st1" x1="53" y1="79" x2="53" y2="90"/>
	<line class="st1" x1="44" y1="79" x2="44" y2="90"/>
	<line class="st1" x1="28" y1="78" x2="28" y2="89"/>
</g>
<path class="st6" d="M97.7,33.3c0.1-0.9,0.2-1.9,0.2-2.9C97.9,16.4,83.8,5,66.4,5C49.5,5,35.7,15.8,35,29.3c-12,2.2-21,10.5-21,20.3
	c0,11.5,12.3,20.9,27.4,20.9c9,0,16.9-3.3,21.9-8.4c4.9,2.4,11,3.9,17.7,3.9c15.8,0,28.5-8.1,28.5-18.1
	C109.5,41.9,104.8,36.5,97.7,33.3z"/>
</svg>
