<?xml version="1.0" encoding="utf-8"?>
<!-- Generator: Adobe Illustrator 22.1.0, SVG Export Plug-In . SVG Version: 6.00 Build 0)  -->
<svg version="1.1" id="Layer_1" xmlns="http://www.w3.org/2000/svg" xmlns:xlink="http://www.w3.org/1999/xlink" x="0px" y="0px"
	 viewBox="0 0 128 96" style="enable-background:new 0 0 128 96;" xml:space="preserve">
<style type="text/css">
	.st0{fill-rule:evenodd;clip-rule:evenodd;fill:#FF0000;stroke:#CCCCCC;stroke-miterlimit:10;}
	.st1{fill:none;stroke:#29ABE2;stroke-width:2;stroke-linecap:round;stroke-miterlimit:10;}
	.st2{fill:#FCEE21;}
	.st3{fill:none;stroke:#FCEE21;stroke-width:2;stroke-linecap:round;stroke-miterlimit:10;}
	.st4{fill:none;stroke:#FCEE21;stroke-width:4;stroke-linecap:round;stroke-miterlimit:10;}
	.st5{fill-rule:evenodd;clip-rule:evenodd;fill:#E6E6E6;stroke:#CCCCCC;stroke-miterlimit:10;}
	.st6{fill-rule:evenodd;clip-rule:evenodd;fill:#B3B3B3;stroke:#999999;stroke-miterlimit:10;}
	.st7{fill-rule:evenodd;clip-rule:evenodd;fill:#F2F2F2;stroke:#F2F2F2;stroke-miterlimit:10;}
	.st8{fill-rule:evenodd;clip-rule:evenodd;fill:#FCEE21;stroke:#FBB03B;stroke-miterlimit:10;}
	.st9{fill:none;stroke:#CCCCCC;stroke-miterlimit:10;}
	.st10{fill:none;stroke:#CCCCCC;stroke-width:4;stroke-miterlimit:10;}
	.st11{fill:#FFFFFF;stroke:#CCCCCC;stroke-miterlimit:10;}
</style>
<g>
	<line class="st1" x1="28" y1="58" x2="28" y2="82"/>
	<line class="st1" x1="39" y1="57" x2="39" y2="82"/>
	<line class="st1" x1="50" y1="59" x2="50" y2="75"/>
	<line class="st1" x1="61" y1="56" x2="61" y2="76"/>
	<line class="st1" x1="68" y1="60" x2="68" y2="77"/>
	<line class="st1" x1="77" y1="68" x2="77" y2="81"/>
	<line class="st1" x1="88" y1="61" x2="88" y2="76"/>
	<line class="st1" x1="95" y1="54" x2="95" y2="73"/>
	<line class="st1" x1="108" y1="57" x2="108" y2="74"/>
	<line class="st1" x1="101" y1="76" x2="101" y2="83"/>
	<line class="st1" x1="90" y1="79" x2="90" y2="86"/>
	<line class="st1" x1="71" y1="79" x2="71" y2="90"/>
	<line class="st1" x1="57" y1="78" x2="57" y2="89"/>
	<line class="st1" x1="48" y1="78" x2="48" y2="89"/>
	<line class="st1" x1="32" y1="77" x2="32" y2="88"/>
</g>
<polygon class="st8" points="90.5,57.5 77.5,75.5 83.5,77.5 74.5,91.5 89,76.5 84.5,74.5 "/>
<polygon class="st8" points="56.5,56.5 43.5,74.5 49.5,76.5 40.5,90.5 55,75.5 50.5,73.5 "/>
<path class="st6" d="M101.7,32.3c0.1-0.9,0.2-1.9,0.2-2.9c0-14-14.1-25.4-31.4-25.4C53.5,4,39.7,14.8,39,28.3
	c-12,2.2-21,10.5-21,20.3c0,11.5,12.3,20.9,27.4,20.9c9,0,16.9-3.3,21.9-8.4c4.9,2.4,11,3.9,17.7,3.9c15.8,0,28.5-8.1,28.5-18.1
	C113.5,40.9,108.8,35.5,101.7,32.3z"/>
</svg>
