<?xml version="1.0" encoding="utf-8"?>
<!-- Generator: Adobe Illustrator 22.1.0, SVG Export Plug-In . SVG Version: 6.00 Build 0)  -->
<svg version="1.1" id="Layer_1" xmlns="http://www.w3.org/2000/svg" xmlns:xlink="http://www.w3.org/1999/xlink" x="0px" y="0px"
	 viewBox="0 0 128 96" style="enable-background:new 0 0 128 96;" xml:space="preserve">
<style type="text/css">
	.st0{fill-rule:evenodd;clip-rule:evenodd;fill:#FF0000;stroke:#CCCCCC;stroke-miterlimit:10;}
	.st1{fill:none;stroke:#29ABE2;stroke-width:2;stroke-linecap:round;stroke-miterlimit:10;}
	.st2{fill:#FCEE21;}
	.st3{fill:none;stroke:#FCEE21;stroke-width:2;stroke-linecap:round;stroke-miterlimit:10;}
	.st4{fill:none;stroke:#FCEE21;stroke-width:4;stroke-linecap:round;stroke-miterlimit:10;}
	.st5{fill-rule:evenodd;clip-rule:evenodd;fill:#E6E6E6;stroke:#CCCCCC;stroke-miterlimit:10;}
	.st6{fill-rule:evenodd;clip-rule:evenodd;fill:#B3B3B3;stroke:#999999;stroke-miterlimit:10;}
	.st7{fill-rule:evenodd;clip-rule:evenodd;fill:#F2F2F2;stroke:#F2F2F2;stroke-miterlimit:10;}
	.st8{fill-rule:evenodd;clip-rule:evenodd;fill:#FCEE21;stroke:#FBB03B;stroke-miterlimit:10;}
	.st9{fill:none;stroke:#CCCCCC;stroke-miterlimit:10;}
	.st10{fill:none;stroke:#CCCCCC;stroke-width:4;stroke-miterlimit:10;}
	.st11{fill:#FFFFFF;stroke:#CCCCCC;stroke-miterlimit:10;}
</style>
<line class="st10" x1="76" y1="90" x2="76" y2="20"/>
<path class="st11" d="M76,41.7c-98,0.7,0-21,0-21V41.7z"/>
<path class="st9" d="M40.7,30.8c0,0-6.6,7.2,0.6,9.4"/>
<path class="st9" d="M47.2,28.4c0,0-8.1,8,0.6,12.5"/>
<path class="st9" d="M52.5,26.8c0,0-8,9.2,0,14.5"/>
<path class="st9" d="M58.4,25.1c0,0-7.9,10.4,0.1,16.4"/>
<path class="st9" d="M65.3,23.2c0,0-9.2,8.6,0,18.4"/>
<path class="st9" d="M71.2,21.8c0,0-6.7,13.7,0.3,19.7"/>
<path class="st9" d="M74.2,21.1c0,0-5.3,17.8,0,20.6"/>
<path class="st9" d="M34,38.3c0,0,37.5,3.2,42-4.3"/>
<path class="st9" d="M32.4,36.5c0,0,38.1-1.7,43.6-5.3"/>
<path class="st9" d="M36.1,33c0,0,25.4-8,39.9-5.7"/>
</svg>
